<svg width="20" height="15" viewBox="0 0 20 15" fill="none" xmlns="http://www.w3.org/2000/svg">
<path d="M18.9041 14.5096C18.6695 14.51 18.441 14.4351 18.2521 14.2961L10 8.21288L1.74797 14.2961C1.63212 14.3816 1.50054 14.4435 1.36073 14.4783C1.22093 14.513 1.07565 14.5199 0.933183 14.4986C0.790715 14.4772 0.653851 14.428 0.530406 14.3538C0.406961 14.2796 0.299352 14.1818 0.213723 14.0661C0.128094 13.9503 0.0661217 13.8188 0.031345 13.6791C-0.00343163 13.5394 -0.0103318 13.3943 0.0110384 13.2519C0.0541974 12.9644 0.209888 12.7058 0.44386 12.533L9.34797 5.96249C9.53667 5.8229 9.76524 5.74756 10 5.74756C10.2348 5.74756 10.4634 5.8229 10.6521 5.96249L19.5562 12.533C19.7421 12.6699 19.88 12.862 19.9501 13.0819C20.0203 13.3018 20.0191 13.5382 19.9468 13.7573C19.8745 13.9765 19.7348 14.1673 19.5475 14.3024C19.3603 14.4375 19.1351 14.51 18.9041 14.5096Z" fill="#FF3D00"/>
<path d="M18.9042 8.76057C18.6695 8.76097 18.441 8.68612 18.2521 8.54702L10.0001 2.46386L1.748 8.54702C1.51403 8.71983 1.22095 8.79269 0.933218 8.74956C0.645491 8.70643 0.386693 8.55086 0.213758 8.31706C0.0408221 8.08326 -0.0320856 7.79039 0.0110734 7.50288C0.0542325 7.21536 0.209923 6.95676 0.443895 6.78395L9.348 0.213471C9.5367 0.0738799 9.76528 -0.00146484 10.0001 -0.00146484C10.2348 -0.00146484 10.4634 0.0738799 10.6521 0.213471L19.5562 6.78395C19.7421 6.92087 19.88 7.11298 19.9502 7.33286C20.0203 7.55274 20.0192 7.78914 19.9469 8.00832C19.8746 8.22751 19.7348 8.41826 19.5476 8.55335C19.3603 8.68844 19.1351 8.76096 18.9042 8.76057Z" fill="#FF3D00"/>
</svg>
