<svg width="352" height="56" viewBox="0 0 352 56" fill="none" xmlns="http://www.w3.org/2000/svg">
<rect x="0.5" y="0.5" width="351" height="55" rx="9.5" fill="#2A3647"/>
<rect x="0.5" y="0.5" width="351" height="55" rx="9.5" stroke="#2A3647"/>
<path d="M68.4599 35.5H64.9996L70.272 20.2273H74.4332L79.6982 35.5H76.2379L72.4123 23.7173H72.293L68.4599 35.5ZM68.2436 29.4968H76.4169V32.0174H68.2436V29.4968ZM85.1644 35.6864C84.2944 35.6864 83.5064 35.4627 82.8004 35.0153C82.0994 34.5629 81.5426 33.8991 81.13 33.0241C80.7223 32.1442 80.5185 31.0653 80.5185 29.7876C80.5185 28.4751 80.7298 27.3839 81.1523 26.5138C81.5749 25.6388 82.1367 24.9851 82.8377 24.5526C83.5437 24.1151 84.3168 23.8963 85.157 23.8963C85.7983 23.8963 86.3327 24.0057 86.7603 24.2244C87.1928 24.4382 87.5408 24.7067 87.8043 25.0298C88.0728 25.348 88.2766 25.6612 88.4158 25.9695H88.5128V20.2273H91.6822V35.5H88.5501V33.6655H88.4158C88.2667 33.9837 88.0554 34.2994 87.782 34.6126C87.5135 34.9208 87.163 35.1768 86.7305 35.3807C86.3029 35.5845 85.7809 35.6864 85.1644 35.6864ZM86.1712 33.1584C86.6832 33.1584 87.1158 33.0192 87.4688 32.7408C87.8267 32.4574 88.1001 32.0621 88.2891 31.555C88.483 31.0479 88.5799 30.4538 88.5799 29.7727C88.5799 29.0916 88.4854 28.5 88.2965 27.9979C88.1076 27.4957 87.8342 27.108 87.4762 26.8345C87.1183 26.5611 86.6832 26.4244 86.1712 26.4244C85.6491 26.4244 85.2092 26.5661 84.8512 26.8494C84.4933 27.1328 84.2223 27.5256 84.0384 28.0277C83.8544 28.5298 83.7624 29.1115 83.7624 29.7727C83.7624 30.4389 83.8544 31.0281 84.0384 31.5401C84.2273 32.0472 84.4982 32.445 84.8512 32.7333C85.2092 33.0167 85.6491 33.1584 86.1712 33.1584ZM98.515 35.6864C97.645 35.6864 96.857 35.4627 96.151 35.0153C95.45 34.5629 94.8932 33.8991 94.4806 33.0241C94.0729 32.1442 93.8691 31.0653 93.8691 29.7876C93.8691 28.4751 94.0803 27.3839 94.5029 26.5138C94.9255 25.6388 95.4873 24.9851 96.1883 24.5526C96.8943 24.1151 97.6673 23.8963 98.5075 23.8963C99.1489 23.8963 99.6833 24.0057 100.111 24.2244C100.543 24.4382 100.891 24.7067 101.155 25.0298C101.423 25.348 101.627 25.6612 101.766 25.9695H101.863V20.2273H105.033V35.5H101.901V33.6655H101.766C101.617 33.9837 101.406 34.2994 101.133 34.6126C100.864 34.9208 100.514 35.1768 100.081 35.3807C99.6535 35.5845 99.1315 35.6864 98.515 35.6864ZM99.5218 33.1584C100.034 33.1584 100.466 33.0192 100.819 32.7408C101.177 32.4574 101.451 32.0621 101.64 31.555C101.834 31.0479 101.93 30.4538 101.93 29.7727C101.93 29.0916 101.836 28.5 101.647 27.9979C101.458 27.4957 101.185 27.108 100.827 26.8345C100.469 26.5611 100.034 26.4244 99.5218 26.4244C98.9997 26.4244 98.5597 26.5661 98.2018 26.8494C97.8438 27.1328 97.5729 27.5256 97.3889 28.0277C97.205 28.5298 97.113 29.1115 97.113 29.7727C97.113 30.4389 97.205 31.0281 97.3889 31.5401C97.5779 32.0472 97.8488 32.445 98.2018 32.7333C98.5597 33.0167 98.9997 33.1584 99.5218 33.1584ZM115.682 28.8778V35.5H112.505V24.0455H115.533V26.0664H115.667C115.921 25.4002 116.346 24.8732 116.942 24.4854C117.539 24.0927 118.262 23.8963 119.112 23.8963C119.908 23.8963 120.601 24.0703 121.193 24.4183C121.785 24.7663 122.244 25.2635 122.573 25.9098C122.901 26.5511 123.065 27.3168 123.065 28.2067V35.5H119.888V28.7734C119.893 28.0724 119.714 27.5256 119.351 27.1328C118.988 26.7351 118.488 26.5362 117.852 26.5362C117.424 26.5362 117.047 26.6282 116.718 26.8121C116.395 26.9961 116.142 27.2646 115.958 27.6175C115.779 27.9656 115.687 28.3857 115.682 28.8778ZM130.789 35.7237C129.61 35.7237 128.596 35.4851 127.746 35.0078C126.901 34.5256 126.25 33.8445 125.792 32.9645C125.335 32.0795 125.106 31.033 125.106 29.8249C125.106 28.6467 125.335 27.6126 125.792 26.7227C126.25 25.8327 126.893 25.1392 127.724 24.642C128.559 24.1449 129.538 23.8963 130.662 23.8963C131.418 23.8963 132.121 24.0181 132.772 24.2617C133.429 24.5004 134 24.8608 134.488 25.343C134.98 25.8253 135.363 26.4318 135.636 27.1626C135.909 27.8885 136.046 28.7386 136.046 29.7131V30.5856H126.374V28.6168H133.056C133.056 28.1594 132.956 27.7543 132.757 27.4013C132.559 27.0483 132.283 26.7724 131.93 26.5735C131.582 26.3697 131.176 26.2678 130.714 26.2678C130.232 26.2678 129.804 26.3796 129.431 26.6033C129.064 26.8221 128.775 27.1179 128.566 27.4908C128.358 27.8587 128.251 28.2688 128.246 28.7212V30.593C128.246 31.1598 128.35 31.6495 128.559 32.0621C128.773 32.4748 129.074 32.793 129.461 33.0167C129.849 33.2404 130.309 33.3523 130.841 33.3523C131.194 33.3523 131.517 33.3026 131.81 33.2031C132.104 33.1037 132.355 32.9545 132.564 32.7557C132.772 32.5568 132.931 32.3132 133.041 32.0249L135.979 32.2188C135.83 32.9247 135.524 33.5412 135.062 34.0682C134.604 34.5902 134.013 34.9979 133.287 35.2912C132.566 35.5795 131.733 35.7237 130.789 35.7237ZM140.297 35.5L137.18 24.0455H140.394L142.169 31.7415H142.273L144.123 24.0455H147.277L149.156 31.6967H149.253L150.998 24.0455H154.205L151.095 35.5H147.732L145.763 28.2962H145.621L143.653 35.5H140.297ZM165.935 35.7237C164.762 35.7237 163.753 35.4751 162.908 34.978C162.067 34.4759 161.421 33.7798 160.969 32.8899C160.521 32 160.298 30.9759 160.298 29.8175C160.298 28.6442 160.524 27.6151 160.976 26.7301C161.434 25.8402 162.082 25.1467 162.923 24.6495C163.763 24.1474 164.762 23.8963 165.92 23.8963C166.92 23.8963 167.795 24.0778 168.545 24.4407C169.296 24.8036 169.89 25.3132 170.328 25.9695C170.765 26.6257 171.006 27.3963 171.051 28.2812H168.053C167.969 27.7095 167.745 27.2496 167.382 26.9016C167.024 26.5487 166.554 26.3722 165.973 26.3722C165.48 26.3722 165.05 26.5064 164.683 26.7749C164.32 27.0384 164.036 27.4237 163.832 27.9308C163.629 28.4379 163.527 29.0518 163.527 29.7727C163.527 30.5036 163.626 31.125 163.825 31.6371C164.029 32.1491 164.315 32.5394 164.683 32.8079C165.05 33.0763 165.48 33.2106 165.973 33.2106C166.336 33.2106 166.661 33.136 166.95 32.9869C167.243 32.8377 167.484 32.6214 167.673 32.3381C167.867 32.0497 167.994 31.7042 168.053 31.3015H171.051C171.001 32.1765 170.763 32.9471 170.335 33.6133C169.913 34.2745 169.328 34.7915 168.583 35.1644C167.837 35.5373 166.955 35.7237 165.935 35.7237ZM178.261 35.7237C177.102 35.7237 176.1 35.4776 175.255 34.9854C174.415 34.4883 173.766 33.7972 173.309 32.9123C172.851 32.0224 172.623 30.9908 172.623 29.8175C172.623 28.6342 172.851 27.6001 173.309 26.7152C173.766 25.8253 174.415 25.1342 175.255 24.642C176.1 24.1449 177.102 23.8963 178.261 23.8963C179.419 23.8963 180.418 24.1449 181.258 24.642C182.104 25.1342 182.755 25.8253 183.212 26.7152C183.67 27.6001 183.898 28.6342 183.898 29.8175C183.898 30.9908 183.67 32.0224 183.212 32.9123C182.755 33.7972 182.104 34.4883 181.258 34.9854C180.418 35.4776 179.419 35.7237 178.261 35.7237ZM178.275 33.2628C178.802 33.2628 179.242 33.1136 179.595 32.8153C179.948 32.5121 180.214 32.0994 180.393 31.5774C180.577 31.0554 180.669 30.4613 180.669 29.7951C180.669 29.1289 180.577 28.5348 180.393 28.0128C180.214 27.4908 179.948 27.0781 179.595 26.7749C179.242 26.4716 178.802 26.32 178.275 26.32C177.744 26.32 177.296 26.4716 176.933 26.7749C176.575 27.0781 176.304 27.4908 176.12 28.0128C175.941 28.5348 175.852 29.1289 175.852 29.7951C175.852 30.4613 175.941 31.0554 176.12 31.5774C176.304 32.0994 176.575 32.5121 176.933 32.8153C177.296 33.1136 177.744 33.2628 178.275 33.2628ZM189.141 28.8778V35.5H185.964V24.0455H188.992V26.0664H189.126C189.38 25.4002 189.805 24.8732 190.401 24.4854C190.998 24.0927 191.721 23.8963 192.571 23.8963C193.367 23.8963 194.06 24.0703 194.652 24.4183C195.244 24.7663 195.703 25.2635 196.032 25.9098C196.36 26.5511 196.524 27.3168 196.524 28.2067V35.5H193.347V28.7734C193.352 28.0724 193.173 27.5256 192.81 27.1328C192.447 26.7351 191.947 26.5362 191.311 26.5362C190.883 26.5362 190.506 26.6282 190.177 26.8121C189.854 26.9961 189.601 27.2646 189.417 27.6175C189.238 27.9656 189.146 28.3857 189.141 28.8778ZM205.12 24.0455V26.4318H198.222V24.0455H205.12ZM199.788 21.3011H202.965V31.9801C202.965 32.2734 203.01 32.5021 203.099 32.6662C203.189 32.8253 203.313 32.9371 203.472 33.0018C203.636 33.0664 203.825 33.0987 204.039 33.0987C204.188 33.0987 204.337 33.0863 204.486 33.0614C204.635 33.0316 204.75 33.0092 204.829 32.9943L205.329 35.3583C205.17 35.408 204.946 35.4652 204.658 35.5298C204.369 35.5994 204.019 35.6417 203.606 35.6566C202.841 35.6864 202.17 35.5845 201.593 35.3509C201.021 35.1172 200.576 34.7543 200.258 34.2621C199.94 33.7699 199.783 33.1484 199.788 32.3977V21.3011ZM210.456 35.7163C209.725 35.7163 209.074 35.5895 208.502 35.3359C207.93 35.0774 207.478 34.6971 207.145 34.195C206.817 33.6879 206.653 33.0565 206.653 32.3008C206.653 31.6644 206.77 31.13 207.003 30.6974C207.237 30.2649 207.555 29.9169 207.958 29.6534C208.36 29.3899 208.818 29.1911 209.33 29.0568C209.847 28.9226 210.389 28.8281 210.956 28.7734C211.622 28.7038 212.159 28.6392 212.566 28.5795C212.974 28.5149 213.27 28.4205 213.454 28.2962C213.638 28.1719 213.73 27.9879 213.73 27.7443V27.6996C213.73 27.2273 213.581 26.8619 213.282 26.6033C212.989 26.3448 212.571 26.2156 212.029 26.2156C211.458 26.2156 211.003 26.3423 210.665 26.5959C210.327 26.8445 210.103 27.1577 209.994 27.5355L207.055 27.2969C207.205 26.6009 207.498 25.9993 207.935 25.4922C208.373 24.9801 208.937 24.5874 209.628 24.3139C210.324 24.0355 211.13 23.8963 212.044 23.8963C212.681 23.8963 213.29 23.9709 213.871 24.12C214.458 24.2692 214.978 24.5004 215.43 24.8136C215.887 25.1268 216.248 25.5295 216.511 26.0217C216.775 26.5089 216.907 27.093 216.907 27.7741V35.5H213.894V33.9116H213.804C213.62 34.2695 213.374 34.5852 213.066 34.8587C212.758 35.1271 212.387 35.3384 211.955 35.4925C211.522 35.6417 211.023 35.7163 210.456 35.7163ZM211.366 33.5238C211.833 33.5238 212.246 33.4318 212.604 33.2479C212.962 33.0589 213.243 32.8054 213.446 32.4872C213.65 32.169 213.752 31.8086 213.752 31.4059V30.1903C213.653 30.255 213.516 30.3146 213.342 30.3693C213.173 30.419 212.982 30.4663 212.768 30.511C212.554 30.5508 212.34 30.5881 212.126 30.6229C211.913 30.6527 211.719 30.68 211.545 30.7049C211.172 30.7596 210.846 30.8466 210.568 30.9659C210.289 31.0852 210.073 31.2468 209.919 31.4506C209.765 31.6495 209.688 31.8981 209.688 32.1964C209.688 32.6289 209.844 32.9595 210.158 33.1882C210.476 33.4119 210.879 33.5238 211.366 33.5238ZM224.547 35.7237C223.373 35.7237 222.364 35.4751 221.519 34.978C220.679 34.4759 220.032 33.7798 219.58 32.8899C219.133 32 218.909 30.9759 218.909 29.8175C218.909 28.6442 219.135 27.6151 219.588 26.7301C220.045 25.8402 220.694 25.1467 221.534 24.6495C222.374 24.1474 223.373 23.8963 224.532 23.8963C225.531 23.8963 226.406 24.0778 227.157 24.4407C227.907 24.8036 228.502 25.3132 228.939 25.9695C229.377 26.6257 229.618 27.3963 229.662 28.2812H226.665C226.58 27.7095 226.356 27.2496 225.993 26.9016C225.635 26.5487 225.166 26.3722 224.584 26.3722C224.092 26.3722 223.662 26.5064 223.294 26.7749C222.931 27.0384 222.648 27.4237 222.444 27.9308C222.24 28.4379 222.138 29.0518 222.138 29.7727C222.138 30.5036 222.237 31.125 222.436 31.6371C222.64 32.1491 222.926 32.5394 223.294 32.8079C223.662 33.0763 224.092 33.2106 224.584 33.2106C224.947 33.2106 225.273 33.136 225.561 32.9869C225.854 32.8377 226.095 32.6214 226.284 32.3381C226.478 32.0497 226.605 31.7042 226.665 31.3015H229.662C229.613 32.1765 229.374 32.9471 228.947 33.6133C228.524 34.2745 227.94 34.7915 227.194 35.1644C226.448 35.5373 225.566 35.7237 224.547 35.7237ZM237.789 24.0455V26.4318H230.891V24.0455H237.789ZM232.457 21.3011H235.634V31.9801C235.634 32.2734 235.679 32.5021 235.768 32.6662C235.858 32.8253 235.982 32.9371 236.141 33.0018C236.305 33.0664 236.494 33.0987 236.708 33.0987C236.857 33.0987 237.006 33.0863 237.155 33.0614C237.304 33.0316 237.419 33.0092 237.498 32.9943L237.998 35.3583C237.839 35.408 237.615 35.4652 237.327 35.5298C237.038 35.5994 236.688 35.6417 236.275 35.6566C235.51 35.6864 234.839 35.5845 234.262 35.3509C233.69 35.1172 233.245 34.7543 232.927 34.2621C232.609 33.7699 232.452 33.1484 232.457 32.3977V21.3011Z" fill="white"/>
<mask id="mask0_71348_10641" style="mask-type:alpha" maskUnits="userSpaceOnUse" x="255" y="12" width="33" height="32">
<rect x="255.5" y="12" width="32" height="32" fill="#D9D9D9"/>
</mask>
<g mask="url(#mask0_71348_10641)">
<path d="M280.829 30.6667C280.513 30.6667 280.25 30.5602 280.039 30.3473C279.828 30.1343 279.722 29.8704 279.722 29.5556V26.4445H276.611C276.296 26.4445 276.032 26.3376 275.819 26.1239C275.606 25.9102 275.5 25.6454 275.5 25.3295C275.5 25.0136 275.606 24.7501 275.819 24.5389C276.032 24.3278 276.296 24.2223 276.611 24.2223H279.722V21.1111C279.722 20.7963 279.829 20.5325 280.043 20.3195C280.256 20.1065 280.521 20 280.837 20C281.153 20 281.417 20.1065 281.628 20.3195C281.839 20.5325 281.944 20.7963 281.944 21.1111V24.2223H285.055C285.37 24.2223 285.634 24.3291 285.847 24.5428C286.06 24.7566 286.167 25.0214 286.167 25.3373C286.167 25.6532 286.06 25.9167 285.847 26.1278C285.634 26.3389 285.37 26.4445 285.055 26.4445H281.944V29.5556C281.944 29.8704 281.837 30.1343 281.624 30.3473C281.41 30.5602 281.145 30.6667 280.829 30.6667ZM267.5 27.9778C266.033 27.9778 264.815 27.4926 263.844 26.5223C262.874 25.5519 262.389 24.3334 262.389 22.8667C262.389 21.4 262.874 20.1815 263.844 19.2112C264.815 18.2408 266.033 17.7556 267.5 17.7556C268.967 17.7556 270.185 18.2408 271.155 19.2112C272.126 20.1815 272.611 21.4 272.611 22.8667C272.611 24.3334 272.126 25.5519 271.155 26.5223C270.185 27.4926 268.967 27.9778 267.5 27.9778ZM257.944 38.6667C257.63 38.6667 257.366 38.5602 257.153 38.3473C256.94 38.1343 256.833 37.8704 256.833 37.5556V35.3334C256.833 34.563 257.031 33.8612 257.428 33.2279C257.824 32.5945 258.367 32.1186 259.055 31.8C260.626 31.0815 262.08 30.5649 263.419 30.25C264.757 29.9352 266.116 29.7779 267.496 29.7779C268.876 29.7779 270.237 29.9352 271.578 30.25C272.918 30.5649 274.367 31.0815 275.922 31.8C276.611 32.1334 277.157 32.613 277.561 33.2389C277.965 33.8649 278.167 34.563 278.167 35.3334V37.5556C278.167 37.8704 278.06 38.1343 277.847 38.3473C277.634 38.5602 277.37 38.6667 277.055 38.6667H257.944ZM259.055 36.4445H275.944V35.3334C275.944 35.0149 275.865 34.7149 275.705 34.4334C275.546 34.1519 275.307 33.9408 274.989 33.8C273.552 33.0963 272.263 32.6204 271.122 32.3723C269.981 32.1241 268.774 32 267.5 32C266.226 32 265.018 32.1278 263.878 32.3834C262.737 32.6389 261.441 33.1112 259.989 33.8C259.7 33.9408 259.472 34.1519 259.305 34.4334C259.139 34.7149 259.055 35.0149 259.055 35.3334V36.4445ZM267.5 25.7556C268.322 25.7556 269.009 25.4797 269.561 24.9278C270.113 24.376 270.389 23.6889 270.389 22.8667C270.389 22.0445 270.113 21.3575 269.561 20.8056C269.009 20.2537 268.322 19.9778 267.5 19.9778C266.678 19.9778 265.991 20.2537 265.439 20.8056C264.887 21.3575 264.611 22.0445 264.611 22.8667C264.611 23.6889 264.887 24.376 265.439 24.9278C265.991 25.4797 266.678 25.7556 267.5 25.7556Z" fill="white"/>
</g>
</svg>
