<svg width="35" height="16" viewBox="0 0 35 16" fill="none" xmlns="http://www.w3.org/2000/svg">
<path d="M32.313 15.167C31.912 15.1677 31.5213 15.0381 31.1985 14.7973L17.0932 4.26744L2.98798 14.7973C2.78995 14.9454 2.56504 15.0526 2.32608 15.1128C2.08711 15.1729 1.83878 15.1849 1.59526 15.1479C1.35174 15.1109 1.1178 15.0258 0.906793 14.8974C0.695788 14.7689 0.511852 14.5996 0.365486 14.3993C0.21912 14.1989 0.113191 13.9713 0.053747 13.7295C-0.00569677 13.4876 -0.0174913 13.2363 0.0190368 12.9899C0.0928087 12.4922 0.358931 12.0446 0.758859 11.7455L15.9787 0.372051C16.3012 0.130421 16.6919 0 17.0932 0C17.4945 0 17.8852 0.130421 18.2078 0.372051L33.4276 11.7455C33.7454 11.9825 33.9811 12.315 34.101 12.6956C34.2209 13.0762 34.2189 13.4854 34.0953 13.8648C33.9717 14.2442 33.7329 14.5744 33.4128 14.8083C33.0927 15.0421 32.7078 15.1677 32.313 15.167Z" fill="white"/>
</svg>
