<svg width="35" height="26" viewBox="0 0 35 26" fill="none" xmlns="http://www.w3.org/2000/svg">
<path d="M32.313 25.1162C31.912 25.1169 31.5213 24.9873 31.1985 24.7465L17.0932 14.2167L2.98798 24.7465C2.78995 24.8947 2.56504 25.0019 2.32608 25.062C2.08711 25.1222 1.83878 25.1341 1.59526 25.0971C1.35174 25.0602 1.1178 24.975 0.906793 24.8466C0.695788 24.7181 0.511852 24.5489 0.365486 24.3485C0.21912 24.1481 0.113191 23.9205 0.053747 23.6787C-0.00569677 23.4369 -0.0174913 23.1856 0.0190368 22.9391C0.0928087 22.4415 0.358931 21.9938 0.758859 21.6947L15.9787 10.3213C16.3012 10.0796 16.6919 9.94922 17.0932 9.94922C17.4945 9.94922 17.8852 10.0796 18.2078 10.3213L33.4276 21.6947C33.7454 21.9317 33.9811 22.2642 34.101 22.6448C34.2209 23.0254 34.2189 23.4347 34.0953 23.8141C33.9717 24.1935 33.7329 24.5237 33.4128 24.7575C33.0927 24.9913 32.7078 25.1169 32.313 25.1162Z" fill="white"/>
<path d="M32.3128 15.1645C31.9118 15.1652 31.5211 15.0357 31.1983 14.7949L17.093 4.265L2.98774 14.7949C2.58781 15.094 2.08684 15.2201 1.59502 15.1455C1.10321 15.0708 0.660849 14.8015 0.365249 14.3968C0.06965 13.9921 -0.0549714 13.4852 0.0188004 12.9875C0.0925723 12.4898 0.358694 12.0421 0.758623 11.743L15.9784 0.36961C16.301 0.127979 16.6917 -0.00244141 17.093 -0.00244141C17.4943 -0.00244141 17.885 0.127979 18.2076 0.36961L33.4274 11.743C33.7452 11.98 33.9808 12.3126 34.1007 12.6932C34.2207 13.0738 34.2187 13.483 34.0951 13.8624C33.9715 14.2418 33.7326 14.572 33.4125 14.8058C33.0925 15.0397 32.7076 15.1652 32.3128 15.1645Z" fill="white"/>
</svg>
