<svg width="17" height="7" viewBox="0 0 17 7" fill="none" xmlns="http://www.w3.org/2000/svg">
<path d="M16.0685 6.33357L0.931507 6.33357C0.684456 6.33357 0.447523 6.23472 0.272832 6.05876C0.0981406 5.8828 0 5.64415 0 5.3953C0 5.14646 0.0981406 4.9078 0.272832 4.73184C0.447523 4.55588 0.684456 4.45703 0.931507 4.45703L16.0685 4.45703C16.3155 4.45703 16.5525 4.55588 16.7272 4.73184C16.9019 4.9078 17 5.14646 17 5.3953C17 5.64415 16.9019 5.8828 16.7272 6.05876C16.5525 6.23472 16.3155 6.33357 16.0685 6.33357Z" fill="#FFA800"/>
<path d="M16.0685 1.87654L0.931507 1.87654C0.684456 1.87654 0.447523 1.77769 0.272832 1.60173C0.0981406 1.42577 0 1.18712 0 0.938272C0 0.689426 0.0981406 0.450773 0.272832 0.274813C0.447523 0.0988533 0.684456 0 0.931507 0L16.0685 0C16.3155 0 16.5525 0.0988533 16.7272 0.274813C16.9019 0.450773 17 0.689426 17 0.938272C17 1.18712 16.9019 1.42577 16.7272 1.60173C16.5525 1.77769 16.3155 1.87654 16.0685 1.87654Z" fill="#FFA800"/>
</svg>
